<mxfile host="app.diagrams.net" agent="Mozilla/5.0 (X11; Linux x86_64) AppleWebKit/537.36 (KHTML, like Gecko) Chrome/133.0.0.0 Safari/537.36" version="26.0.16" pages="3">
  <diagram name="Регистрация" id="2YBvvXClWsGukQMizWep">
    <mxGraphModel dx="724" dy="1487" grid="1" gridSize="10" guides="1" tooltips="1" connect="1" arrows="1" fold="1" page="1" pageScale="1" pageWidth="850" pageHeight="1100" math="0" shadow="0">
      <root>
        <mxCell id="0" />
        <mxCell id="1" parent="0" />
        <mxCell id="pjOzmn17vI07jSU5vY2f-1" value="" style="shape=umlLifeline;perimeter=lifelinePerimeter;whiteSpace=wrap;html=1;container=1;dropTarget=0;collapsible=0;recursiveResize=0;outlineConnect=0;portConstraint=eastwest;newEdgeStyle={&quot;curved&quot;:0,&quot;rounded&quot;:0};participant=umlActor;" vertex="1" parent="1">
          <mxGeometry x="70" y="-80" width="20" height="300" as="geometry" />
        </mxCell>
        <mxCell id="pjOzmn17vI07jSU5vY2f-6" value="" style="html=1;points=[[0,0,0,0,5],[0,1,0,0,-5],[1,0,0,0,5],[1,1,0,0,-5]];perimeter=orthogonalPerimeter;outlineConnect=0;targetShapes=umlLifeline;portConstraint=eastwest;newEdgeStyle={&quot;curved&quot;:0,&quot;rounded&quot;:0};" vertex="1" parent="pjOzmn17vI07jSU5vY2f-1">
          <mxGeometry x="5" y="80" width="10" height="70" as="geometry" />
        </mxCell>
        <mxCell id="pjOzmn17vI07jSU5vY2f-2" value="Backend" style="shape=umlLifeline;perimeter=lifelinePerimeter;whiteSpace=wrap;html=1;container=1;dropTarget=0;collapsible=0;recursiveResize=0;outlineConnect=0;portConstraint=eastwest;newEdgeStyle={&quot;curved&quot;:0,&quot;rounded&quot;:0};" vertex="1" parent="1">
          <mxGeometry x="180" y="-80" width="100" height="300" as="geometry" />
        </mxCell>
        <mxCell id="pjOzmn17vI07jSU5vY2f-7" value="" style="html=1;points=[[0,0,0,0,5],[0,1,0,0,-5],[1,0,0,0,5],[1,1,0,0,-5]];perimeter=orthogonalPerimeter;outlineConnect=0;targetShapes=umlLifeline;portConstraint=eastwest;newEdgeStyle={&quot;curved&quot;:0,&quot;rounded&quot;:0};" vertex="1" parent="pjOzmn17vI07jSU5vY2f-2">
          <mxGeometry x="45" y="80" width="10" height="190" as="geometry" />
        </mxCell>
        <mxCell id="pjOzmn17vI07jSU5vY2f-3" value="DB" style="shape=umlLifeline;perimeter=lifelinePerimeter;whiteSpace=wrap;html=1;container=1;dropTarget=0;collapsible=0;recursiveResize=0;outlineConnect=0;portConstraint=eastwest;newEdgeStyle={&quot;curved&quot;:0,&quot;rounded&quot;:0};" vertex="1" parent="1">
          <mxGeometry x="340" y="-80" width="100" height="300" as="geometry" />
        </mxCell>
        <mxCell id="pjOzmn17vI07jSU5vY2f-8" value="" style="html=1;points=[[0,0,0,0,5],[0,1,0,0,-5],[1,0,0,0,5],[1,1,0,0,-5]];perimeter=orthogonalPerimeter;outlineConnect=0;targetShapes=umlLifeline;portConstraint=eastwest;newEdgeStyle={&quot;curved&quot;:0,&quot;rounded&quot;:0};" vertex="1" parent="pjOzmn17vI07jSU5vY2f-3">
          <mxGeometry x="45" y="80" width="10" height="190" as="geometry" />
        </mxCell>
        <mxCell id="pjOzmn17vI07jSU5vY2f-9" value="" style="endArrow=block;endFill=1;html=1;edgeStyle=orthogonalEdgeStyle;align=left;verticalAlign=top;rounded=0;exitX=1;exitY=0;exitDx=0;exitDy=5;exitPerimeter=0;entryX=0;entryY=0;entryDx=0;entryDy=5;entryPerimeter=0;" edge="1" parent="1" source="pjOzmn17vI07jSU5vY2f-6" target="pjOzmn17vI07jSU5vY2f-7">
          <mxGeometry x="-0.6429" y="-25" relative="1" as="geometry">
            <mxPoint x="90" y="10" as="sourcePoint" />
            <mxPoint x="220" y="10" as="targetPoint" />
            <mxPoint as="offset" />
          </mxGeometry>
        </mxCell>
        <mxCell id="pjOzmn17vI07jSU5vY2f-10" value="Нажатие кнопки&amp;nbsp;&lt;div&gt;&quot;Зарегистрироваться&quot;&lt;/div&gt;" style="edgeLabel;resizable=0;html=1;align=left;verticalAlign=bottom;" connectable="0" vertex="1" parent="pjOzmn17vI07jSU5vY2f-9">
          <mxGeometry x="-1" relative="1" as="geometry" />
        </mxCell>
        <mxCell id="pjOzmn17vI07jSU5vY2f-11" value="JSON" style="html=1;verticalAlign=bottom;endArrow=open;dashed=1;endSize=8;curved=0;rounded=0;" edge="1" parent="1" source="pjOzmn17vI07jSU5vY2f-7" target="pjOzmn17vI07jSU5vY2f-6">
          <mxGeometry relative="1" as="geometry">
            <mxPoint x="210" y="70" as="sourcePoint" />
            <mxPoint x="90" y="50" as="targetPoint" />
          </mxGeometry>
        </mxCell>
        <mxCell id="pjOzmn17vI07jSU5vY2f-14" value="Валидация данных" style="html=1;align=left;spacingLeft=2;endArrow=block;rounded=0;edgeStyle=orthogonalEdgeStyle;curved=0;rounded=0;" edge="1" target="pjOzmn17vI07jSU5vY2f-7" parent="1">
          <mxGeometry relative="1" as="geometry">
            <mxPoint x="230" as="sourcePoint" />
            <Array as="points">
              <mxPoint x="285" />
              <mxPoint x="285" y="30" />
            </Array>
            <mxPoint x="230" y="30" as="targetPoint" />
          </mxGeometry>
        </mxCell>
        <mxCell id="pjOzmn17vI07jSU5vY2f-15" value="" style="endArrow=block;endFill=1;html=1;edgeStyle=orthogonalEdgeStyle;align=left;verticalAlign=top;rounded=0;" edge="1" parent="1" source="pjOzmn17vI07jSU5vY2f-7" target="pjOzmn17vI07jSU5vY2f-8">
          <mxGeometry x="-1" relative="1" as="geometry">
            <mxPoint x="300" y="50" as="sourcePoint" />
            <mxPoint x="460" y="50" as="targetPoint" />
          </mxGeometry>
        </mxCell>
        <mxCell id="pjOzmn17vI07jSU5vY2f-16" value="Создание&lt;div&gt;пользователя&lt;/div&gt;" style="edgeLabel;resizable=0;html=1;align=left;verticalAlign=bottom;" connectable="0" vertex="1" parent="pjOzmn17vI07jSU5vY2f-15">
          <mxGeometry x="-1" relative="1" as="geometry" />
        </mxCell>
        <mxCell id="pjOzmn17vI07jSU5vY2f-18" value="Объект пользователя" style="html=1;verticalAlign=bottom;endArrow=open;dashed=1;endSize=8;curved=0;rounded=0;" edge="1" parent="1">
          <mxGeometry relative="1" as="geometry">
            <mxPoint x="385" y="180" as="sourcePoint" />
            <mxPoint x="235" y="180" as="targetPoint" />
          </mxGeometry>
        </mxCell>
        <mxCell id="KnbIgeN2X-yvM1o0ppT5-1" value="" style="endArrow=block;endFill=1;html=1;edgeStyle=orthogonalEdgeStyle;align=left;verticalAlign=top;rounded=0;" edge="1" parent="1">
          <mxGeometry x="-1" relative="1" as="geometry">
            <mxPoint x="235" y="140" as="sourcePoint" />
            <mxPoint x="385" y="140" as="targetPoint" />
          </mxGeometry>
        </mxCell>
        <mxCell id="KnbIgeN2X-yvM1o0ppT5-2" value="Создание JWT&lt;div&gt;токена&lt;/div&gt;" style="edgeLabel;resizable=0;html=1;align=left;verticalAlign=bottom;" connectable="0" vertex="1" parent="KnbIgeN2X-yvM1o0ppT5-1">
          <mxGeometry x="-1" relative="1" as="geometry" />
        </mxCell>
      </root>
    </mxGraphModel>
  </diagram>
  <diagram id="2PfDsPbwOm-rbX1o3dKC" name="Авторизация">
    <mxGraphModel dx="724" dy="1487" grid="1" gridSize="10" guides="1" tooltips="1" connect="1" arrows="1" fold="1" page="1" pageScale="1" pageWidth="850" pageHeight="1100" math="0" shadow="0">
      <root>
        <mxCell id="0" />
        <mxCell id="1" parent="0" />
        <mxCell id="TFfakIooILQDrVvr6DBo-1" value="" style="shape=umlLifeline;perimeter=lifelinePerimeter;whiteSpace=wrap;html=1;container=1;dropTarget=0;collapsible=0;recursiveResize=0;outlineConnect=0;portConstraint=eastwest;newEdgeStyle={&quot;curved&quot;:0,&quot;rounded&quot;:0};participant=umlActor;" vertex="1" parent="1">
          <mxGeometry x="70" y="-80" width="20" height="300" as="geometry" />
        </mxCell>
        <mxCell id="TFfakIooILQDrVvr6DBo-2" value="" style="html=1;points=[[0,0,0,0,5],[0,1,0,0,-5],[1,0,0,0,5],[1,1,0,0,-5]];perimeter=orthogonalPerimeter;outlineConnect=0;targetShapes=umlLifeline;portConstraint=eastwest;newEdgeStyle={&quot;curved&quot;:0,&quot;rounded&quot;:0};" vertex="1" parent="TFfakIooILQDrVvr6DBo-1">
          <mxGeometry x="5" y="80" width="10" height="70" as="geometry" />
        </mxCell>
        <mxCell id="TFfakIooILQDrVvr6DBo-3" value="Backend" style="shape=umlLifeline;perimeter=lifelinePerimeter;whiteSpace=wrap;html=1;container=1;dropTarget=0;collapsible=0;recursiveResize=0;outlineConnect=0;portConstraint=eastwest;newEdgeStyle={&quot;curved&quot;:0,&quot;rounded&quot;:0};" vertex="1" parent="1">
          <mxGeometry x="180" y="-80" width="100" height="300" as="geometry" />
        </mxCell>
        <mxCell id="TFfakIooILQDrVvr6DBo-4" value="" style="html=1;points=[[0,0,0,0,5],[0,1,0,0,-5],[1,0,0,0,5],[1,1,0,0,-5]];perimeter=orthogonalPerimeter;outlineConnect=0;targetShapes=umlLifeline;portConstraint=eastwest;newEdgeStyle={&quot;curved&quot;:0,&quot;rounded&quot;:0};" vertex="1" parent="TFfakIooILQDrVvr6DBo-3">
          <mxGeometry x="45" y="80" width="10" height="190" as="geometry" />
        </mxCell>
        <mxCell id="TFfakIooILQDrVvr6DBo-5" value="DB" style="shape=umlLifeline;perimeter=lifelinePerimeter;whiteSpace=wrap;html=1;container=1;dropTarget=0;collapsible=0;recursiveResize=0;outlineConnect=0;portConstraint=eastwest;newEdgeStyle={&quot;curved&quot;:0,&quot;rounded&quot;:0};" vertex="1" parent="1">
          <mxGeometry x="340" y="-80" width="100" height="300" as="geometry" />
        </mxCell>
        <mxCell id="TFfakIooILQDrVvr6DBo-6" value="" style="html=1;points=[[0,0,0,0,5],[0,1,0,0,-5],[1,0,0,0,5],[1,1,0,0,-5]];perimeter=orthogonalPerimeter;outlineConnect=0;targetShapes=umlLifeline;portConstraint=eastwest;newEdgeStyle={&quot;curved&quot;:0,&quot;rounded&quot;:0};" vertex="1" parent="TFfakIooILQDrVvr6DBo-5">
          <mxGeometry x="45" y="80" width="10" height="190" as="geometry" />
        </mxCell>
        <mxCell id="TFfakIooILQDrVvr6DBo-7" value="" style="endArrow=block;endFill=1;html=1;edgeStyle=orthogonalEdgeStyle;align=left;verticalAlign=top;rounded=0;exitX=1;exitY=0;exitDx=0;exitDy=5;exitPerimeter=0;entryX=0;entryY=0;entryDx=0;entryDy=5;entryPerimeter=0;" edge="1" parent="1" source="TFfakIooILQDrVvr6DBo-2" target="TFfakIooILQDrVvr6DBo-4">
          <mxGeometry x="-0.6429" y="-25" relative="1" as="geometry">
            <mxPoint x="90" y="10" as="sourcePoint" />
            <mxPoint x="220" y="10" as="targetPoint" />
            <mxPoint as="offset" />
          </mxGeometry>
        </mxCell>
        <mxCell id="TFfakIooILQDrVvr6DBo-8" value="Нажатие кнопки&amp;nbsp;&lt;div&gt;&quot;Войти&quot;&lt;/div&gt;" style="edgeLabel;resizable=0;html=1;align=left;verticalAlign=bottom;" connectable="0" vertex="1" parent="TFfakIooILQDrVvr6DBo-7">
          <mxGeometry x="-1" relative="1" as="geometry" />
        </mxCell>
        <mxCell id="TFfakIooILQDrVvr6DBo-9" value="JSON" style="html=1;verticalAlign=bottom;endArrow=open;dashed=1;endSize=8;curved=0;rounded=0;" edge="1" parent="1" source="TFfakIooILQDrVvr6DBo-4" target="TFfakIooILQDrVvr6DBo-2">
          <mxGeometry relative="1" as="geometry">
            <mxPoint x="210" y="70" as="sourcePoint" />
            <mxPoint x="90" y="50" as="targetPoint" />
          </mxGeometry>
        </mxCell>
        <mxCell id="TFfakIooILQDrVvr6DBo-10" value="Валидация данных" style="html=1;align=left;spacingLeft=2;endArrow=block;rounded=0;edgeStyle=orthogonalEdgeStyle;curved=0;rounded=0;" edge="1" parent="1" target="TFfakIooILQDrVvr6DBo-4">
          <mxGeometry relative="1" as="geometry">
            <mxPoint x="230" as="sourcePoint" />
            <Array as="points">
              <mxPoint x="285" />
              <mxPoint x="285" y="30" />
            </Array>
            <mxPoint x="230" y="30" as="targetPoint" />
          </mxGeometry>
        </mxCell>
        <mxCell id="TFfakIooILQDrVvr6DBo-11" value="" style="endArrow=block;endFill=1;html=1;edgeStyle=orthogonalEdgeStyle;align=left;verticalAlign=top;rounded=0;" edge="1" parent="1" source="TFfakIooILQDrVvr6DBo-4" target="TFfakIooILQDrVvr6DBo-6">
          <mxGeometry x="-1" relative="1" as="geometry">
            <mxPoint x="300" y="50" as="sourcePoint" />
            <mxPoint x="460" y="50" as="targetPoint" />
          </mxGeometry>
        </mxCell>
        <mxCell id="TFfakIooILQDrVvr6DBo-12" value="Получение&lt;div&gt;пользователя&lt;/div&gt;" style="edgeLabel;resizable=0;html=1;align=left;verticalAlign=bottom;" connectable="0" vertex="1" parent="TFfakIooILQDrVvr6DBo-11">
          <mxGeometry x="-1" relative="1" as="geometry" />
        </mxCell>
        <mxCell id="TFfakIooILQDrVvr6DBo-13" value="Объект пользователя&lt;div&gt;+ JWT Token&lt;/div&gt;" style="html=1;verticalAlign=bottom;endArrow=open;dashed=1;endSize=8;curved=0;rounded=0;" edge="1" parent="1">
          <mxGeometry x="0.2667" relative="1" as="geometry">
            <mxPoint x="385" y="190" as="sourcePoint" />
            <mxPoint x="235" y="190" as="targetPoint" />
            <mxPoint as="offset" />
          </mxGeometry>
        </mxCell>
        <mxCell id="TFfakIooILQDrVvr6DBo-18" value="" style="endArrow=block;endFill=1;html=1;edgeStyle=orthogonalEdgeStyle;align=left;verticalAlign=top;rounded=0;" edge="1" parent="1">
          <mxGeometry x="-1" relative="1" as="geometry">
            <mxPoint x="235" y="140" as="sourcePoint" />
            <mxPoint x="385" y="140" as="targetPoint" />
          </mxGeometry>
        </mxCell>
        <mxCell id="TFfakIooILQDrVvr6DBo-19" value="Создание JWT&lt;div&gt;токена&lt;/div&gt;" style="edgeLabel;resizable=0;html=1;align=left;verticalAlign=bottom;" connectable="0" vertex="1" parent="TFfakIooILQDrVvr6DBo-18">
          <mxGeometry x="-1" relative="1" as="geometry" />
        </mxCell>
      </root>
    </mxGraphModel>
  </diagram>
  <diagram id="9N1ZmcruWnpUf8JMcEie" name="CRUD пользователя">
    <mxGraphModel dx="724" dy="1487" grid="1" gridSize="10" guides="1" tooltips="1" connect="1" arrows="1" fold="1" page="1" pageScale="1" pageWidth="850" pageHeight="1100" math="0" shadow="0">
      <root>
        <mxCell id="0" />
        <mxCell id="1" parent="0" />
        <mxCell id="SyfrRnXozIwNbhA5KZFX-1" value="" style="shape=umlLifeline;perimeter=lifelinePerimeter;whiteSpace=wrap;html=1;container=1;dropTarget=0;collapsible=0;recursiveResize=0;outlineConnect=0;portConstraint=eastwest;newEdgeStyle={&quot;curved&quot;:0,&quot;rounded&quot;:0};participant=umlActor;" vertex="1" parent="1">
          <mxGeometry x="70" y="-80" width="20" height="300" as="geometry" />
        </mxCell>
        <mxCell id="SyfrRnXozIwNbhA5KZFX-2" value="" style="html=1;points=[[0,0,0,0,5],[0,1,0,0,-5],[1,0,0,0,5],[1,1,0,0,-5]];perimeter=orthogonalPerimeter;outlineConnect=0;targetShapes=umlLifeline;portConstraint=eastwest;newEdgeStyle={&quot;curved&quot;:0,&quot;rounded&quot;:0};" vertex="1" parent="SyfrRnXozIwNbhA5KZFX-1">
          <mxGeometry x="5" y="80" width="10" height="70" as="geometry" />
        </mxCell>
        <mxCell id="SyfrRnXozIwNbhA5KZFX-3" value="Backend" style="shape=umlLifeline;perimeter=lifelinePerimeter;whiteSpace=wrap;html=1;container=1;dropTarget=0;collapsible=0;recursiveResize=0;outlineConnect=0;portConstraint=eastwest;newEdgeStyle={&quot;curved&quot;:0,&quot;rounded&quot;:0};" vertex="1" parent="1">
          <mxGeometry x="180" y="-80" width="100" height="300" as="geometry" />
        </mxCell>
        <mxCell id="SyfrRnXozIwNbhA5KZFX-4" value="" style="html=1;points=[[0,0,0,0,5],[0,1,0,0,-5],[1,0,0,0,5],[1,1,0,0,-5]];perimeter=orthogonalPerimeter;outlineConnect=0;targetShapes=umlLifeline;portConstraint=eastwest;newEdgeStyle={&quot;curved&quot;:0,&quot;rounded&quot;:0};" vertex="1" parent="SyfrRnXozIwNbhA5KZFX-3">
          <mxGeometry x="45" y="80" width="10" height="190" as="geometry" />
        </mxCell>
        <mxCell id="SyfrRnXozIwNbhA5KZFX-5" value="DB" style="shape=umlLifeline;perimeter=lifelinePerimeter;whiteSpace=wrap;html=1;container=1;dropTarget=0;collapsible=0;recursiveResize=0;outlineConnect=0;portConstraint=eastwest;newEdgeStyle={&quot;curved&quot;:0,&quot;rounded&quot;:0};" vertex="1" parent="1">
          <mxGeometry x="340" y="-80" width="100" height="300" as="geometry" />
        </mxCell>
        <mxCell id="SyfrRnXozIwNbhA5KZFX-6" value="" style="html=1;points=[[0,0,0,0,5],[0,1,0,0,-5],[1,0,0,0,5],[1,1,0,0,-5]];perimeter=orthogonalPerimeter;outlineConnect=0;targetShapes=umlLifeline;portConstraint=eastwest;newEdgeStyle={&quot;curved&quot;:0,&quot;rounded&quot;:0};" vertex="1" parent="SyfrRnXozIwNbhA5KZFX-5">
          <mxGeometry x="45" y="80" width="10" height="190" as="geometry" />
        </mxCell>
        <mxCell id="SyfrRnXozIwNbhA5KZFX-7" value="" style="endArrow=block;endFill=1;html=1;edgeStyle=orthogonalEdgeStyle;align=left;verticalAlign=top;rounded=0;exitX=1;exitY=0;exitDx=0;exitDy=5;exitPerimeter=0;entryX=0;entryY=0;entryDx=0;entryDy=5;entryPerimeter=0;" edge="1" parent="1" source="SyfrRnXozIwNbhA5KZFX-2" target="SyfrRnXozIwNbhA5KZFX-4">
          <mxGeometry x="-0.6429" y="-25" relative="1" as="geometry">
            <mxPoint x="90" y="10" as="sourcePoint" />
            <mxPoint x="220" y="10" as="targetPoint" />
            <mxPoint as="offset" />
          </mxGeometry>
        </mxCell>
        <mxCell id="SyfrRnXozIwNbhA5KZFX-8" value="Получение&lt;div&gt;пользователя&lt;/div&gt;" style="edgeLabel;resizable=0;html=1;align=left;verticalAlign=bottom;" connectable="0" vertex="1" parent="SyfrRnXozIwNbhA5KZFX-7">
          <mxGeometry x="-1" relative="1" as="geometry" />
        </mxCell>
        <mxCell id="SyfrRnXozIwNbhA5KZFX-9" value="JSON" style="html=1;verticalAlign=bottom;endArrow=open;dashed=1;endSize=8;curved=0;rounded=0;" edge="1" parent="1" source="SyfrRnXozIwNbhA5KZFX-4" target="SyfrRnXozIwNbhA5KZFX-2">
          <mxGeometry relative="1" as="geometry">
            <mxPoint x="210" y="70" as="sourcePoint" />
            <mxPoint x="90" y="50" as="targetPoint" />
          </mxGeometry>
        </mxCell>
        <mxCell id="SyfrRnXozIwNbhA5KZFX-11" value="" style="endArrow=block;endFill=1;html=1;edgeStyle=orthogonalEdgeStyle;align=left;verticalAlign=top;rounded=0;" edge="1" parent="1" source="SyfrRnXozIwNbhA5KZFX-4" target="SyfrRnXozIwNbhA5KZFX-6">
          <mxGeometry x="-1" relative="1" as="geometry">
            <mxPoint x="300" y="50" as="sourcePoint" />
            <mxPoint x="460" y="50" as="targetPoint" />
            <Array as="points">
              <mxPoint x="280" y="100" />
              <mxPoint x="280" y="100" />
            </Array>
          </mxGeometry>
        </mxCell>
        <mxCell id="SyfrRnXozIwNbhA5KZFX-12" value="Получение&lt;div&gt;пользователя&lt;/div&gt;&lt;div&gt;через JWT&lt;span style=&quot;background-color: light-dark(#ffffff, var(--ge-dark-color, #121212)); color: light-dark(rgb(0, 0, 0), rgb(255, 255, 255));&quot;&gt;&amp;nbsp;token&lt;/span&gt;&lt;/div&gt;" style="edgeLabel;resizable=0;html=1;align=left;verticalAlign=bottom;" connectable="0" vertex="1" parent="SyfrRnXozIwNbhA5KZFX-11">
          <mxGeometry x="-1" relative="1" as="geometry" />
        </mxCell>
        <mxCell id="SyfrRnXozIwNbhA5KZFX-13" value="Объект пользователя" style="html=1;verticalAlign=bottom;endArrow=open;dashed=1;endSize=8;curved=0;rounded=0;" edge="1" parent="1">
          <mxGeometry x="0.2667" relative="1" as="geometry">
            <mxPoint x="385" y="160" as="sourcePoint" />
            <mxPoint x="235" y="160" as="targetPoint" />
            <mxPoint as="offset" />
          </mxGeometry>
        </mxCell>
        <mxCell id="SyfrRnXozIwNbhA5KZFX-16" value="GET" style="text;html=1;align=center;verticalAlign=middle;resizable=0;points=[];autosize=1;strokeColor=none;fillColor=none;" vertex="1" parent="1">
          <mxGeometry x="55" y="-110" width="50" height="30" as="geometry" />
        </mxCell>
      </root>
    </mxGraphModel>
  </diagram>
</mxfile>
